<?xml version="1.0" encoding="UTF-8"?>
<svg xmlns="http://www.w3.org/2000/svg" xmlns:xlink="http://www.w3.org/1999/xlink" width="854" height="480" viewBox="0 0 854 480">
<defs>
<g>
<g id="glyph-0-0">
<path d="M 4.367188 -5.851562 C 4.285156 -5.847656 4.183594 -5.835938 4.066406 -5.820312 C 3.945312 -5.800781 3.84375 -5.777344 3.757812 -5.746094 C 3.660156 -5.710938 3.59375 -5.652344 3.558594 -5.574219 C 3.523438 -5.492188 3.507812 -5.402344 3.507812 -5.308594 L 3.507812 -1.65625 C 3.507812 -1.46875 3.46875 -1.265625 3.390625 -1.050781 C 3.316406 -0.835938 3.203125 -0.644531 3.054688 -0.476562 C 2.886719 -0.28125 2.683594 -0.128906 2.445312 -0.015625 C 2.210938 0.09375 1.941406 0.148438 1.636719 0.148438 C 1.164062 0.148438 0.78125 0.015625 0.488281 -0.25 C 0.195312 -0.515625 0.046875 -0.871094 0.046875 -1.320312 C 0.046875 -1.515625 0.0976562 -1.691406 0.199219 -1.84375 C 0.300781 -1.996094 0.449219 -2.070312 0.640625 -2.070312 C 0.816406 -2.070312 0.957031 -2.023438 1.0625 -1.925781 C 1.167969 -1.828125 1.21875 -1.699219 1.21875 -1.539062 C 1.21875 -1.449219 1.199219 -1.355469 1.164062 -1.261719 C 1.125 -1.171875 1.082031 -1.089844 1.039062 -1.015625 C 0.992188 -0.949219 0.945312 -0.871094 0.890625 -0.78125 C 0.835938 -0.691406 0.796875 -0.609375 0.773438 -0.539062 C 0.832031 -0.441406 0.929688 -0.359375 1.058594 -0.285156 C 1.1875 -0.214844 1.359375 -0.179688 1.574219 -0.179688 C 1.785156 -0.179688 1.960938 -0.226562 2.09375 -0.324219 C 2.230469 -0.421875 2.328125 -0.550781 2.394531 -0.710938 C 2.460938 -0.863281 2.503906 -1.046875 2.53125 -1.265625 C 2.558594 -1.488281 2.574219 -1.734375 2.574219 -2.003906 L 2.574219 -5.265625 C 2.574219 -5.367188 2.558594 -5.449219 2.523438 -5.519531 C 2.492188 -5.585938 2.421875 -5.648438 2.316406 -5.699219 C 2.226562 -5.746094 2.117188 -5.78125 1.980469 -5.804688 C 1.847656 -5.828125 1.734375 -5.84375 1.648438 -5.851562 L 1.648438 -6.160156 L 4.367188 -6.160156 Z "/>
</g>
<g id="glyph-0-1">
<path d="M 4.367188 -0.078125 C 4.230469 -0.0273438 4.109375 0.0117188 4.007812 0.0429688 C 3.90625 0.0703125 3.789062 0.0859375 3.660156 0.0859375 C 3.433594 0.0859375 3.253906 0.0351562 3.117188 -0.0703125 C 2.984375 -0.175781 2.898438 -0.332031 2.859375 -0.535156 L 2.835938 -0.535156 C 2.644531 -0.324219 2.445312 -0.167969 2.230469 -0.0546875 C 2.011719 0.0546875 1.753906 0.109375 1.449219 0.109375 C 1.128906 0.109375 0.863281 0.0117188 0.65625 -0.1875 C 0.449219 -0.382812 0.347656 -0.640625 0.347656 -0.960938 C 0.347656 -1.125 0.371094 -1.273438 0.417969 -1.402344 C 0.464844 -1.53125 0.53125 -1.648438 0.625 -1.753906 C 0.699219 -1.839844 0.792969 -1.917969 0.910156 -1.984375 C 1.03125 -2.054688 1.140625 -2.109375 1.246094 -2.148438 C 1.375 -2.199219 1.640625 -2.289062 2.039062 -2.421875 C 2.4375 -2.554688 2.703125 -2.660156 2.84375 -2.734375 L 2.84375 -3.164062 C 2.84375 -3.203125 2.835938 -3.273438 2.820312 -3.382812 C 2.804688 -3.488281 2.769531 -3.589844 2.71875 -3.683594 C 2.660156 -3.792969 2.578125 -3.886719 2.472656 -3.964844 C 2.367188 -4.042969 2.214844 -4.085938 2.023438 -4.085938 C 1.890625 -4.085938 1.765625 -4.0625 1.652344 -4.015625 C 1.539062 -3.972656 1.457031 -3.925781 1.410156 -3.875 C 1.410156 -3.816406 1.425781 -3.734375 1.453125 -3.621094 C 1.480469 -3.507812 1.492188 -3.402344 1.492188 -3.308594 C 1.492188 -3.207031 1.449219 -3.113281 1.355469 -3.03125 C 1.265625 -2.945312 1.136719 -2.902344 0.976562 -2.902344 C 0.832031 -2.902344 0.726562 -2.957031 0.65625 -3.058594 C 0.589844 -3.160156 0.554688 -3.277344 0.554688 -3.402344 C 0.554688 -3.535156 0.601562 -3.664062 0.695312 -3.785156 C 0.789062 -3.90625 0.914062 -4.015625 1.0625 -4.109375 C 1.195312 -4.191406 1.351562 -4.261719 1.535156 -4.316406 C 1.722656 -4.371094 1.902344 -4.402344 2.078125 -4.402344 C 2.320312 -4.402344 2.535156 -4.382812 2.714844 -4.351562 C 2.894531 -4.316406 3.058594 -4.246094 3.207031 -4.136719 C 3.355469 -4.03125 3.46875 -3.882812 3.542969 -3.699219 C 3.621094 -3.515625 3.660156 -3.28125 3.660156 -2.992188 C 3.660156 -2.578125 3.65625 -2.210938 3.644531 -1.890625 C 3.636719 -1.570312 3.632812 -1.222656 3.632812 -0.84375 C 3.632812 -0.730469 3.652344 -0.640625 3.691406 -0.574219 C 3.730469 -0.507812 3.789062 -0.449219 3.871094 -0.402344 C 3.914062 -0.378906 3.984375 -0.363281 4.078125 -0.359375 C 4.171875 -0.355469 4.269531 -0.355469 4.367188 -0.355469 L 4.367188 -0.078125 M 2.851562 -2.371094 C 2.605469 -2.296875 2.390625 -2.226562 2.203125 -2.15625 C 2.019531 -2.085938 1.847656 -2 1.6875 -1.894531 C 1.542969 -1.796875 1.429688 -1.679688 1.34375 -1.546875 C 1.261719 -1.410156 1.21875 -1.25 1.21875 -1.066406 C 1.21875 -0.824219 1.28125 -0.648438 1.410156 -0.535156 C 1.535156 -0.421875 1.695312 -0.363281 1.886719 -0.363281 C 2.09375 -0.363281 2.273438 -0.414062 2.429688 -0.515625 C 2.585938 -0.613281 2.71875 -0.734375 2.824219 -0.871094 Z "/>
</g>
<g id="glyph-0-2">
<path d="M 4.539062 -4.015625 C 4.410156 -3.992188 4.285156 -3.945312 4.167969 -3.875 C 4.050781 -3.804688 3.953125 -3.679688 3.867188 -3.5 C 3.695312 -3.109375 3.519531 -2.707031 3.335938 -2.285156 C 3.15625 -1.863281 2.964844 -1.421875 2.769531 -0.960938 C 2.710938 -0.824219 2.648438 -0.667969 2.585938 -0.484375 C 2.519531 -0.304688 2.460938 -0.128906 2.40625 0.0390625 L 2.066406 0.0390625 C 1.792969 -0.640625 1.539062 -1.261719 1.304688 -1.820312 C 1.074219 -2.378906 0.835938 -2.953125 0.585938 -3.542969 C 0.527344 -3.675781 0.433594 -3.777344 0.304688 -3.851562 C 0.175781 -3.925781 0.046875 -3.972656 -0.0820312 -3.992188 L -0.0820312 -4.28125 L 1.898438 -4.28125 L 1.898438 -3.976562 C 1.8125 -3.972656 1.703125 -3.953125 1.574219 -3.921875 C 1.441406 -3.886719 1.378906 -3.84375 1.378906 -3.785156 C 1.378906 -3.777344 1.382812 -3.753906 1.398438 -3.71875 C 1.414062 -3.683594 1.429688 -3.640625 1.441406 -3.59375 C 1.5625 -3.300781 1.726562 -2.886719 1.945312 -2.359375 C 2.160156 -1.828125 2.335938 -1.402344 2.472656 -1.078125 C 2.578125 -1.328125 2.707031 -1.636719 2.867188 -2.007812 C 3.023438 -2.378906 3.191406 -2.789062 3.375 -3.246094 C 3.40625 -3.324219 3.433594 -3.398438 3.457031 -3.464844 C 3.484375 -3.535156 3.496094 -3.601562 3.496094 -3.671875 C 3.496094 -3.722656 3.472656 -3.765625 3.425781 -3.804688 C 3.378906 -3.84375 3.320312 -3.878906 3.253906 -3.90625 C 3.1875 -3.933594 3.121094 -3.957031 3.058594 -3.972656 C 2.996094 -3.984375 2.941406 -3.996094 2.902344 -4 L 2.902344 -4.28125 L 4.539062 -4.28125 Z "/>
</g>
<g id="glyph-0-3">
<path d="M 1.984375 -3.703125 C 1.984375 -3.542969 1.925781 -3.40625 1.808594 -3.289062 C 1.691406 -3.175781 1.550781 -3.117188 1.390625 -3.117188 C 1.226562 -3.117188 1.085938 -3.175781 0.96875 -3.289062 C 0.851562 -3.40625 0.792969 -3.542969 0.792969 -3.703125 C 0.792969 -3.867188 0.851562 -4.003906 0.96875 -4.121094 C 1.082031 -4.238281 1.222656 -4.296875 1.390625 -4.296875 C 1.554688 -4.296875 1.695312 -4.238281 1.808594 -4.121094 C 1.925781 -4.003906 1.984375 -3.867188 1.984375 -3.703125 M 1.984375 -0.5 C 1.984375 -0.335938 1.925781 -0.199219 1.808594 -0.0859375 C 1.691406 0.03125 1.550781 0.0859375 1.390625 0.0859375 C 1.226562 0.0859375 1.085938 0.03125 0.96875 -0.0859375 C 0.851562 -0.199219 0.792969 -0.335938 0.792969 -0.5 C 0.792969 -0.660156 0.851562 -0.800781 0.96875 -0.917969 C 1.085938 -1.035156 1.226562 -1.09375 1.390625 -1.09375 C 1.550781 -1.09375 1.691406 -1.035156 1.808594 -0.917969 C 1.925781 -0.800781 1.984375 -0.660156 1.984375 -0.5 Z "/>
</g>
<g id="glyph-0-4">
</g>
</g>
</defs>
<g fill="rgb(100%, 100%, 100%)" fill-opacity="1">
<use xlink:href="#glyph-0-0" x="30" y="28.150391"/>
<use xlink:href="#glyph-0-1" x="35" y="28.150391"/>
<use xlink:href="#glyph-0-2" x="39" y="28.150391"/>
<use xlink:href="#glyph-0-1" x="43" y="28.150391"/>
<use xlink:href="#glyph-0-3" x="47" y="28.150391"/>
<use xlink:href="#glyph-0-4" x="50" y="28.150391"/>
</g>
</svg>
