<?xml version="1.0" encoding="UTF-8"?>
<svg xmlns="http://www.w3.org/2000/svg" xmlns:xlink="http://www.w3.org/1999/xlink" width="1920" height="1080" viewBox="0 0 1920 1080">
<defs>
<g>
<g id="glyph-0-0">
<path d="M 7.472656 -6.171875 L 7.058594 -6.171875 C 7.023438 -6.3125 6.960938 -6.484375 6.867188 -6.679688 C 6.773438 -6.878906 6.667969 -7.0625 6.550781 -7.238281 C 6.433594 -7.421875 6.300781 -7.582031 6.160156 -7.71875 C 6.019531 -7.855469 5.882812 -7.9375 5.75 -7.957031 C 5.625 -7.972656 5.472656 -7.984375 5.285156 -7.992188 C 5.097656 -8 4.921875 -8.003906 4.761719 -8.003906 L 4.417969 -8.003906 L 4.417969 -1.230469 C 4.417969 -1.097656 4.445312 -0.976562 4.5 -0.867188 C 4.554688 -0.757812 4.652344 -0.675781 4.792969 -0.613281 C 4.863281 -0.585938 5.015625 -0.550781 5.242188 -0.5 C 5.472656 -0.453125 5.648438 -0.425781 5.777344 -0.421875 L 5.777344 0 L 1.777344 0 L 1.777344 -0.421875 C 1.890625 -0.433594 2.058594 -0.449219 2.289062 -0.472656 C 2.515625 -0.496094 2.675781 -0.523438 2.761719 -0.5625 C 2.894531 -0.613281 2.992188 -0.6875 3.050781 -0.785156 C 3.113281 -0.882812 3.144531 -1.011719 3.144531 -1.175781 L 3.144531 -8.003906 L 2.800781 -8.003906 C 2.675781 -8.003906 2.523438 -8 2.339844 -7.996094 C 2.15625 -7.988281 1.980469 -7.976562 1.8125 -7.957031 C 1.683594 -7.941406 1.546875 -7.859375 1.40625 -7.71875 C 1.265625 -7.578125 1.132812 -7.417969 1.015625 -7.238281 C 0.894531 -7.058594 0.789062 -6.871094 0.699219 -6.667969 C 0.605469 -6.46875 0.542969 -6.300781 0.507812 -6.171875 L 0.0898438 -6.171875 L 0.0898438 -8.46875 L 7.472656 -8.46875 Z "/>
</g>
<g id="glyph-0-1">
<path d="M 5.65625 -1.382812 C 5.410156 -0.914062 5.082031 -0.542969 4.667969 -0.261719 C 4.253906 0.015625 3.777344 0.15625 3.242188 0.15625 C 2.765625 0.15625 2.351562 0.0703125 1.996094 -0.09375 C 1.640625 -0.261719 1.347656 -0.488281 1.117188 -0.777344 C 0.886719 -1.0625 0.714844 -1.398438 0.601562 -1.777344 C 0.488281 -2.160156 0.429688 -2.5625 0.429688 -2.988281 C 0.429688 -3.371094 0.492188 -3.746094 0.613281 -4.113281 C 0.734375 -4.484375 0.910156 -4.8125 1.144531 -5.109375 C 1.371094 -5.390625 1.652344 -5.617188 1.992188 -5.792969 C 2.328125 -5.964844 2.703125 -6.050781 3.121094 -6.050781 C 3.550781 -6.050781 3.917969 -5.984375 4.226562 -5.847656 C 4.53125 -5.714844 4.78125 -5.527344 4.972656 -5.292969 C 5.15625 -5.070312 5.289062 -4.808594 5.378906 -4.507812 C 5.46875 -4.203125 5.515625 -3.875 5.515625 -3.519531 L 5.515625 -3.128906 L 1.617188 -3.128906 C 1.617188 -2.742188 1.652344 -2.390625 1.726562 -2.074219 C 1.800781 -1.757812 1.917969 -1.480469 2.078125 -1.242188 C 2.230469 -1.011719 2.433594 -0.828125 2.6875 -0.695312 C 2.9375 -0.5625 3.234375 -0.496094 3.582031 -0.496094 C 3.933594 -0.496094 4.242188 -0.578125 4.496094 -0.746094 C 4.753906 -0.910156 5 -1.210938 5.238281 -1.640625 L 5.65625 -1.382812 M 4.339844 -3.628906 C 4.339844 -3.851562 4.320312 -4.089844 4.28125 -4.34375 C 4.246094 -4.597656 4.183594 -4.808594 4.101562 -4.980469 C 4.007812 -5.160156 3.882812 -5.308594 3.722656 -5.425781 C 3.566406 -5.539062 3.359375 -5.597656 3.109375 -5.597656 C 2.691406 -5.597656 2.34375 -5.425781 2.066406 -5.078125 C 1.792969 -4.730469 1.640625 -4.246094 1.617188 -3.628906 Z "/>
</g>
<g id="glyph-0-2">
<path d="M 4.316406 -2.882812 C 4.476562 -2.738281 4.601562 -2.574219 4.691406 -2.386719 C 4.777344 -2.199219 4.820312 -1.972656 4.820312 -1.699219 C 4.820312 -1.15625 4.617188 -0.710938 4.210938 -0.363281 C 3.800781 -0.0195312 3.273438 0.15625 2.625 0.15625 C 2.285156 0.15625 1.96875 0.09375 1.679688 -0.03125 C 1.390625 -0.152344 1.1875 -0.265625 1.0625 -0.371094 L 0.941406 0.0195312 L 0.496094 0.0195312 L 0.4375 -2.027344 L 0.847656 -2.027344 C 0.878906 -1.875 0.945312 -1.691406 1.050781 -1.484375 C 1.152344 -1.277344 1.277344 -1.089844 1.425781 -0.921875 C 1.582031 -0.746094 1.765625 -0.597656 1.984375 -0.476562 C 2.203125 -0.359375 2.445312 -0.296875 2.714844 -0.296875 C 3.097656 -0.296875 3.390625 -0.386719 3.597656 -0.558594 C 3.804688 -0.734375 3.910156 -0.984375 3.910156 -1.308594 C 3.910156 -1.472656 3.875 -1.617188 3.8125 -1.738281 C 3.746094 -1.859375 3.648438 -1.96875 3.519531 -2.058594 C 3.390625 -2.152344 3.230469 -2.234375 3.039062 -2.308594 C 2.847656 -2.378906 2.632812 -2.453125 2.398438 -2.523438 C 2.210938 -2.582031 2.003906 -2.65625 1.777344 -2.753906 C 1.546875 -2.851562 1.351562 -2.964844 1.1875 -3.097656 C 1.011719 -3.238281 0.871094 -3.40625 0.757812 -3.609375 C 0.648438 -3.8125 0.589844 -4.050781 0.589844 -4.328125 C 0.589844 -4.808594 0.769531 -5.214844 1.128906 -5.550781 C 1.484375 -5.882812 1.964844 -6.050781 2.566406 -6.050781 C 2.796875 -6.050781 3.03125 -6.023438 3.273438 -5.960938 C 3.515625 -5.902344 3.710938 -5.832031 3.863281 -5.746094 L 4 -6.058594 L 4.429688 -6.058594 L 4.519531 -4.164062 L 4.105469 -4.164062 C 4.023438 -4.589844 3.84375 -4.933594 3.566406 -5.199219 C 3.289062 -5.464844 2.953125 -5.597656 2.554688 -5.597656 C 2.226562 -5.597656 1.972656 -5.515625 1.785156 -5.351562 C 1.597656 -5.1875 1.503906 -4.988281 1.503906 -4.757812 C 1.503906 -4.578125 1.535156 -4.429688 1.597656 -4.308594 C 1.65625 -4.191406 1.75 -4.089844 1.875 -4.003906 C 1.992188 -3.925781 2.144531 -3.851562 2.324219 -3.78125 C 2.503906 -3.710938 2.730469 -3.632812 2.996094 -3.546875 C 3.257812 -3.460938 3.507812 -3.363281 3.738281 -3.253906 C 3.972656 -3.140625 4.164062 -3.019531 4.316406 -2.882812 Z "/>
</g>
<g id="glyph-0-3">
<path d="M 4.0625 -0.257812 C 3.804688 -0.148438 3.5625 -0.0585938 3.332031 0.015625 C 3.097656 0.0898438 2.816406 0.125 2.484375 0.125 C 1.988281 0.125 1.640625 0 1.441406 -0.246094 C 1.242188 -0.496094 1.140625 -0.847656 1.140625 -1.300781 L 1.140625 -5.289062 L 0.078125 -5.289062 L 0.078125 -5.859375 L 1.164062 -5.859375 L 1.164062 -7.691406 L 2.25 -7.691406 L 2.25 -5.859375 L 3.9375 -5.859375 L 3.9375 -5.289062 L 2.261719 -5.289062 L 2.261719 -2 C 2.261719 -1.753906 2.269531 -1.546875 2.289062 -1.382812 C 2.308594 -1.214844 2.347656 -1.074219 2.417969 -0.949219 C 2.480469 -0.832031 2.578125 -0.746094 2.703125 -0.6875 C 2.832031 -0.625 3 -0.597656 3.21875 -0.597656 C 3.316406 -0.597656 3.460938 -0.605469 3.65625 -0.625 C 3.847656 -0.640625 3.984375 -0.664062 4.0625 -0.691406 Z "/>
</g>
<g id="glyph-0-4">
</g>
<g id="glyph-0-5">
<path d="M 3.28125 0 L 0.441406 0 L 0.441406 -0.394531 C 0.53125 -0.402344 0.628906 -0.410156 0.726562 -0.417969 C 0.824219 -0.425781 0.90625 -0.441406 0.980469 -0.464844 C 1.089844 -0.5 1.171875 -0.5625 1.226562 -0.652344 C 1.28125 -0.742188 1.308594 -0.859375 1.308594 -1 L 1.308594 -4.632812 C 1.308594 -4.757812 1.277344 -4.875 1.21875 -4.980469 C 1.164062 -5.085938 1.082031 -5.175781 0.980469 -5.246094 C 0.902344 -5.292969 0.792969 -5.335938 0.652344 -5.367188 C 0.507812 -5.402344 0.375 -5.421875 0.257812 -5.429688 L 0.257812 -5.824219 L 2.332031 -5.957031 L 2.417969 -5.871094 L 2.417969 -1.074219 C 2.417969 -0.933594 2.445312 -0.820312 2.496094 -0.726562 C 2.550781 -0.636719 2.632812 -0.570312 2.75 -0.523438 C 2.835938 -0.488281 2.921875 -0.460938 3.003906 -0.4375 C 3.085938 -0.417969 3.179688 -0.402344 3.28125 -0.394531 L 3.28125 0 M 2.535156 -8.277344 C 2.535156 -8.050781 2.460938 -7.851562 2.3125 -7.683594 C 2.164062 -7.515625 1.980469 -7.429688 1.761719 -7.429688 C 1.558594 -7.429688 1.382812 -7.511719 1.230469 -7.671875 C 1.082031 -7.832031 1.007812 -8.015625 1.007812 -8.222656 C 1.007812 -8.441406 1.082031 -8.632812 1.230469 -8.796875 C 1.382812 -8.960938 1.558594 -9.042969 1.761719 -9.042969 C 1.988281 -9.042969 2.171875 -8.964844 2.320312 -8.8125 C 2.464844 -8.660156 2.535156 -8.480469 2.535156 -8.277344 Z "/>
</g>
<g id="glyph-0-6">
<path d="M 3.1875 0 L 0.316406 0 L 0.316406 -0.394531 C 0.40625 -0.402344 0.503906 -0.410156 0.609375 -0.421875 C 0.710938 -0.429688 0.796875 -0.445312 0.867188 -0.464844 C 0.976562 -0.5 1.058594 -0.5625 1.117188 -0.652344 C 1.171875 -0.742188 1.199219 -0.859375 1.199219 -1.003906 L 1.199219 -7.824219 C 1.199219 -7.96875 1.167969 -8.101562 1.105469 -8.226562 C 1.046875 -8.351562 0.964844 -8.449219 0.867188 -8.523438 C 0.792969 -8.570312 0.664062 -8.613281 0.472656 -8.652344 C 0.28125 -8.695312 0.128906 -8.71875 0.0117188 -8.726562 L 0.0117188 -9.105469 L 2.226562 -9.238281 L 2.308594 -9.148438 L 2.308594 -1.074219 C 2.308594 -0.933594 2.335938 -0.820312 2.386719 -0.730469 C 2.4375 -0.640625 2.523438 -0.574219 2.636719 -0.523438 C 2.726562 -0.484375 2.8125 -0.457031 2.898438 -0.4375 C 2.984375 -0.414062 3.078125 -0.402344 3.1875 -0.394531 Z "/>
</g>
</g>
</defs>
<g fill="rgb(100%, 100%, 100%)" fill-opacity="1">
<use xlink:href="#glyph-0-0" x="30" y="31.208008"/>
<use xlink:href="#glyph-0-1" x="38" y="31.208008"/>
<use xlink:href="#glyph-0-2" x="44" y="31.208008"/>
<use xlink:href="#glyph-0-3" x="49" y="31.208008"/>
<use xlink:href="#glyph-0-4" x="53" y="31.208008"/>
<use xlink:href="#glyph-0-0" x="56" y="31.208008"/>
<use xlink:href="#glyph-0-5" x="64" y="31.208008"/>
<use xlink:href="#glyph-0-3" x="68" y="31.208008"/>
<use xlink:href="#glyph-0-6" x="72" y="31.208008"/>
<use xlink:href="#glyph-0-1" x="75" y="31.208008"/>
</g>
</svg>
